<svg width="575" height="480" viewBox="0 0 575 480" fill="none" xmlns="http://www.w3.org/2000/svg">
<path d="M422.176 56.281C477.084 82.12 530.508 118.805 555.736 167.612C581.335 216.419 579.109 277.667 558.704 334.13C538.299 390.593 500.086 442.59 445.92 464.282C392.125 485.974 322.377 477.361 253 477.361C183.623 477.361 113.875 485.974 69.3551 461.73C25.2061 437.486 5.54307 380.066 1.09107 327.75C-3.36093 275.753 7.02709 228.86 15.1891 173.673C23.7221 118.486 30.0291 55.005 69.3551 24.7C108.681 -5.60499 180.655 -2.734 245.209 6.198C310.134 15.13 366.897 30.442 422.176 56.281Z" fill="#282828"/>
</svg>
