<?xml version="1.0" standalone="no"?>
<!DOCTYPE svg PUBLIC "-//W3C//DTD SVG 20010904//EN"
 "http://www.w3.org/TR/2001/REC-SVG-20010904/DTD/svg10.dtd">
<svg version="1.0" xmlns="http://www.w3.org/2000/svg"
 width="512.000000pt" height="512.000000pt" viewBox="0 0 512.000000 512.000000"
 preserveAspectRatio="xMidYMid meet">
<metadata>
Created by potrace 1.16, written by Peter Selinger 2001-2019
</metadata>
<g transform="translate(0.000000,512.000000) scale(0.100000,-0.100000)"
fill="#6956C8" stroke="none">
<path d="M1005 4427 c-58 -19 -82 -34 -132 -80 -75 -69 -113 -172 -113 -304
l0 -53 -27 11 c-16 6 -58 11 -95 11 -114 0 -217 -63 -270 -165 -18 -34 -23
-63 -26 -149 l-4 -108 -135 0 c-139 0 -183 -10 -197 -45 -3 -9 -6 -149 -6
-310 l0 -294 26 -20 c24 -19 40 -21 169 -21 l143 0 4 -107 c2 -91 7 -116 28
-156 54 -106 172 -174 285 -164 33 3 70 9 83 13 21 6 22 3 22 -42 0 -131 34
-226 106 -298 163 -164 445 -120 550 85 35 71 44 151 44 422 l0 247 79 0 79 0
4 -197 3 -198 33 -70 c27 -57 56 -93 168 -205 l134 -136 0 -707 0 -707 90 0
90 0 0 729 c0 485 -4 739 -10 758 -6 15 -74 91 -150 168 -92 93 -146 155 -159
185 -19 42 -21 66 -21 338 l0 292 265 0 266 0 24 -25 c14 -13 25 -35 25 -49 0
-74 -31 -86 -218 -86 -148 0 -150 0 -176 -26 -25 -26 -26 -30 -26 -147 0 -151
1 -152 150 -202 60 -20 129 -50 155 -67 92 -61 165 -188 194 -334 l16 -84 89
0 89 0 -7 61 c-21 207 -133 412 -276 507 -33 23 -99 53 -145 69 -47 15 -85 31
-85 35 0 4 42 8 93 8 111 0 184 19 231 60 l34 30 372 0 372 0 -4 -187 c-4
-220 2 -204 -145 -398 -49 -66 -95 -130 -101 -142 -9 -16 -12 -217 -12 -757
l0 -736 90 0 90 0 0 708 0 708 96 128 c52 71 104 146 115 167 37 73 49 155 49
337 l0 172 120 0 120 0 0 -247 c0 -271 9 -351 44 -422 105 -205 387 -249 550
-85 72 72 106 167 106 298 0 45 1 48 23 42 12 -4 49 -10 82 -13 113 -10 231
58 285 164 21 40 26 65 28 156 l4 107 143 0 c129 0 145 2 169 21 l26 20 0 294
c0 161 -3 301 -6 310 -14 35 -58 45 -197 45 l-135 0 -4 108 c-3 86 -8 115 -26
149 -53 102 -156 165 -270 165 -37 0 -79 -5 -94 -11 l-28 -11 0 53 c0 133 -38
235 -115 306 -74 68 -123 86 -235 86 -85 0 -101 -3 -153 -30 -73 -37 -139
-108 -168 -183 -21 -53 -23 -76 -27 -344 l-4 -288 -163 0 -162 0 -5 83 c-5 91
-20 128 -72 180 -53 54 -101 72 -186 72 -64 0 -82 -4 -122 -27 l-46 -28 -49
28 c-40 23 -60 27 -123 27 -63 0 -83 -4 -122 -27 l-48 -27 -47 27 c-40 23 -60
27 -123 27 -63 0 -83 -4 -123 -27 l-49 -28 -46 28 c-40 23 -58 27 -122 27 -86
0 -133 -19 -186 -72 -52 -52 -67 -89 -72 -180 l-5 -83 -162 0 -163 0 -4 288
c-5 329 -11 359 -93 449 -64 72 -138 106 -239 110 -48 2 -97 -2 -121 -10z
m193 -194 c46 -34 70 -79 77 -146 3 -34 5 -438 3 -897 -3 -798 -4 -837 -22
-873 -57 -115 -219 -120 -288 -9 l-23 37 -3 873 c-2 588 1 886 8 912 13 48 54
98 95 116 40 19 119 12 153 -13z m2875 13 c43 -17 84 -67 97 -116 7 -26 10
-324 8 -912 l-3 -873 -23 -37 c-69 -111 -231 -106 -288 9 -18 36 -19 73 -19
918 0 484 3 892 7 907 26 90 134 141 221 104z m-3369 -431 c11 -8 28 -27 38
-42 17 -26 18 -61 18 -535 l0 -507 -33 -35 c-18 -19 -45 -38 -60 -41 -41 -11
-77 3 -114 41 l-33 35 0 507 c0 474 1 509 18 535 29 43 53 56 102 56 25 0 54
-6 64 -14z m3840 0 c11 -8 28 -27 38 -42 17 -26 18 -61 18 -535 l0 -507 -33
-35 c-18 -19 -45 -38 -60 -41 -41 -11 -77 3 -114 41 l-33 35 0 507 c0 474 1
509 18 535 29 43 53 56 102 56 25 0 54 -6 64 -14z m-2447 -89 l28 -24 0 -161
c0 -149 -1 -162 -21 -181 -29 -29 -78 -29 -109 0 -25 23 -25 26 -25 179 1 161
4 175 45 199 30 17 51 14 82 -12z m326 13 c40 -18 47 -50 47 -204 0 -136 -1
-145 -23 -171 -17 -20 -33 -27 -57 -27 -24 0 -40 7 -57 27 -22 26 -23 34 -23
179 1 157 4 171 45 195 25 14 38 15 68 1z m340 -1 c43 -22 46 -36 47 -195 0
-145 -1 -153 -23 -179 -17 -20 -33 -27 -57 -27 -24 0 -40 7 -57 27 -22 26 -23
35 -23 171 0 152 7 186 44 203 28 14 43 14 69 0z m340 0 c43 -23 46 -36 47
-199 0 -153 0 -156 -25 -179 -31 -29 -80 -29 -109 0 -20 19 -21 32 -21 181 l0
161 28 24 c31 27 48 29 80 12z m-2763 -493 l0 -165 -80 0 -80 0 0 165 0 165
80 0 80 0 0 -165z m1450 141 c0 -13 3 -31 6 -40 5 -14 -4 -16 -60 -16 -58 0
-70 -3 -91 -25 -23 -22 -25 -31 -25 -125 l0 -100 -80 0 -80 0 0 165 0 165 165
0 165 0 0 -24z m1870 -141 l0 -165 -550 0 -550 0 0 25 c0 14 -6 41 -14 60 -20
47 -1 52 65 18 73 -38 165 -38 238 0 l52 27 50 -26 c62 -33 152 -37 221 -11
81 31 158 136 158 216 0 21 3 21 165 21 l165 0 0 -165z m1280 0 l0 -165 -80 0
-80 0 0 165 0 165 80 0 80 0 0 -165z"/>
</g>
</svg>
