<svg width="44" height="44" viewBox="0 0 44 44" fill="none" xmlns="http://www.w3.org/2000/svg">
<path d="M22.0002 30.8901C26.9093 30.8901 30.8891 26.9103 30.8891 22.0012C30.8891 17.092 26.9093 13.1123 22.0002 13.1123C17.091 13.1123 13.1113 17.092 13.1113 22.0012C13.1113 26.9103 17.091 30.8901 22.0002 30.8901Z" stroke="#fff" stroke-width="3" stroke-linecap="round" stroke-linejoin="round"/>
<path d="M2 30.8899V13.1121C2 6.9756 6.97462 2.00098 13.1111 2.00098H30.8889C37.0253 2.00098 42 6.9756 42 13.1121V30.8899C42 37.0263 37.0253 42.001 30.8889 42.001H13.1111C6.97462 42.001 2 37.0263 2 30.8899Z" stroke="#fff" stroke-width="3"/>
<path d="M34.2214 9.80113L34.2437 9.77637" stroke="#fff" stroke-width="3" stroke-linecap="round" stroke-linejoin="round"/>
</svg>
