<svg xmlns:xlink="http://www.w3.org/1999/xlink" width="960" xmlns="http://www.w3.org/2000/svg" height="1116" id="screenshot-9c10a76f-19af-801d-8002-83898b22901b" viewBox="0 0 960 1116" style="-webkit-print-color-adjust: exact;" fill="none" version="1.1"><g id="shape-9c10a76f-19af-801d-8002-83898b22901b" rx="0" ry="0"><g id="shape-15cbc19b-be9d-8058-8002-8348dcd7aaf8" rx="0" ry="0"><g id="shape-15cbc19b-be9d-8058-8002-8348dcd7c5c3"><g class="fills" id="fills-15cbc19b-be9d-8058-8002-8348dcd7c5c3"><path rx="0" ry="0" d="M376.902,672.767L376.902,767.662C376.902,767.662,384.883,771.672,402.902,774.767C420.216,777.742,429.902,776.767,429.902,776.767L429.902,643.752L369.902,609.767L427.902,574.767L427.902,520.684L303.902,449.767C303.902,449.767,298.243,458.398,292.402,476.267C286.910,493.065,286.902,501.767,286.902,501.767L366.902,548.767L316.902,578.767L233.902,529.767C233.902,529.767,231.489,510.424,238.902,470.767C244.823,439.090,253.902,422.767,253.902,422.767L208.902,395.767C208.902,395.767,150.527,481.556,196.902,609.767C230.902,703.767,321.902,747.767,321.902,747.767L321.902,686.735C321.902,686.735,305.170,677.030,283.902,650.767C259.837,621.052,253.902,602.767,253.902,602.767L376.902,672.767Z" style="fill: rgb(85, 82, 82); fill-opacity: 0;"/></g><g id="strokes-15cbc19b-be9d-8058-8002-8348dcd7c5c3" class="strokes"><g class="stroke-shape"><path rx="0" ry="0" d="M376.902,672.767L376.902,767.662C376.902,767.662,384.883,771.672,402.902,774.767C420.216,777.742,429.902,776.767,429.902,776.767L429.902,643.752L369.902,609.767L427.902,574.767L427.902,520.684L303.902,449.767C303.902,449.767,298.243,458.398,292.402,476.267C286.910,493.065,286.902,501.767,286.902,501.767L366.902,548.767L316.902,578.767L233.902,529.767C233.902,529.767,231.489,510.424,238.902,470.767C244.823,439.090,253.902,422.767,253.902,422.767L208.902,395.767C208.902,395.767,150.527,481.556,196.902,609.767C230.902,703.767,321.902,747.767,321.902,747.767L321.902,686.735C321.902,686.735,305.170,677.030,283.902,650.767C259.837,621.052,253.902,602.767,253.902,602.767L376.902,672.767Z" style="fill: none; stroke-width: 5; stroke: rgb(165, 88, 255); stroke-opacity: 1;"/></g></g></g><g id="shape-15cbc19b-be9d-8058-8002-8348dcd7c5c4"><g class="fills" id="fills-15cbc19b-be9d-8058-8002-8348dcd7c5c4"><path rx="0" ry="0" d="M457.902,776.767L510.902,767.767L510.902,553.730L549.902,530.767L549.902,753.776C549.902,753.776,560.131,751.894,578.902,740.767C596.131,730.554,603.902,721.767,603.902,721.767L603.902,500.758L649.902,473.767C649.902,473.767,656.223,493.805,652.902,534.767C650.223,567.805,640.902,584.767,640.902,584.767L640.902,686.772C640.902,686.772,692.973,639.437,705.902,540.767C718.306,446.101,678.902,396.767,678.902,396.767L456.902,522.767L457.902,776.767Z" style="fill: rgb(85, 82, 82); fill-opacity: 0;"/></g><g id="strokes-15cbc19b-be9d-8058-8002-8348dcd7c5c4" class="strokes"><g class="stroke-shape"><path rx="0" ry="0" d="M457.902,776.767L510.902,767.767L510.902,553.730L549.902,530.767L549.902,753.776C549.902,753.776,560.131,751.894,578.902,740.767C596.131,730.554,603.902,721.767,603.902,721.767L603.902,500.758L649.902,473.767C649.902,473.767,656.223,493.805,652.902,534.767C650.223,567.805,640.902,584.767,640.902,584.767L640.902,686.772C640.902,686.772,692.973,639.437,705.902,540.767C718.306,446.101,678.902,396.767,678.902,396.767L456.902,522.767L457.902,776.767Z" style="fill: none; stroke-width: 5; stroke: rgb(165, 88, 255); stroke-opacity: 1;"/></g></g></g><g id="shape-15cbc19b-be9d-8058-8002-8348dcd7c5c5"><g class="fills" id="fills-15cbc19b-be9d-8058-8002-8348dcd7c5c5"><path rx="0" ry="0" d="M494.902,466.767L305.902,356.767L340.902,331.767L535.902,443.767L662.902,370.767C662.902,370.767,639.275,312.192,545.902,272.767C459.275,236.192,392.902,256.767,392.902,256.767L482.902,309.767C482.902,309.767,503.714,311.646,534.902,326.767C569.714,343.646,581.902,357.767,581.902,357.767L535.902,384.767L343.902,272.767C343.902,272.767,313.735,280.177,273.902,312.767C233.068,346.177,222.902,371.767,222.902,371.767L442.902,497.767L494.902,466.767Z" style="fill: rgb(85, 82, 82); fill-opacity: 0;"/></g><g id="strokes-15cbc19b-be9d-8058-8002-8348dcd7c5c5" class="strokes"><g class="stroke-shape"><path rx="0" ry="0" d="M494.902,466.767L305.902,356.767L340.902,331.767L535.902,443.767L662.902,370.767C662.902,370.767,639.275,312.192,545.902,272.767C459.275,236.192,392.902,256.767,392.902,256.767L482.902,309.767C482.902,309.767,503.714,311.646,534.902,326.767C569.714,343.646,581.902,357.767,581.902,357.767L535.902,384.767L343.902,272.767C343.902,272.767,313.735,280.177,273.902,312.767C233.068,346.177,222.902,371.767,222.902,371.767L442.902,497.767L494.902,466.767Z" style="fill: none; stroke-width: 5; stroke: rgb(165, 88, 255); stroke-opacity: 1;"/></g></g></g></g><g id="shape-15cbc19b-be9d-8058-8002-83491670fb75"><defs><linearGradient id="fill-color-gradient_rumext-id-6_0" x1="0.9719689187565619" y1="0.03507382816049629" x2="0.07189340149060847" y2="0.9835034011427968" gradientTransform="matrix(1.000000, 0.000000, 0.000000, 1.000000, 0.000000, 0.000000)"><stop offset="0" stop-color="#a558ff" stop-opacity="1"/><stop offset="1" stop-color="#5c85ff" stop-opacity="1"/></linearGradient><pattern patternUnits="userSpaceOnUse" x="0" y="0" height="1096" width="958" data-loading="false" patternTransform="" id="fill-0-rumext-id-6"><g><rect width="958" height="1096" style="fill: url(&quot;#fill-color-gradient_rumext-id-6_0&quot;);"/></g></pattern></defs><g class="fills" id="fills-15cbc19b-be9d-8058-8002-83491670fb75"><path rx="0" ry="0" d="M884.000,0.000C884.000,0.000,800.346,153.790,734.000,233.000C636.000,350.000,650.172,417.452,534.000,436.000C415.000,455.000,437.000,648.000,285.000,685.000C62.533,739.153,52.000,1023.000,52.000,1023.000L0.000,1096.000C0.000,1096.000,391.000,1086.000,460.000,1078.000C529.000,1070.000,958.000,1071.000,958.000,1071.000L958.000,0.000L884.000,0.000Z" fill="url(#fill-0-rumext-id-6)"/></g></g><g id="shape-15cbc19b-be9d-8058-8002-834941a7e5a9"><g class="fills" id="fills-15cbc19b-be9d-8058-8002-834941a7e5a9"><path rx="0" ry="0" d="M659.824,364.522C657.266,368.778,654.767,372.893,652.289,376.867L662.902,370.767C662.902,370.767,661.985,368.494,659.824,364.522ZM427.902,565.883C425.719,570.154,423.523,574.451,421.295,578.754L427.902,574.767L427.902,565.883ZM395.363,624.189C385.839,638.685,375.088,652.392,362.292,664.453L376.902,672.767L376.902,767.662C376.902,767.662,384.883,771.672,402.902,774.767C420.216,777.742,429.902,776.767,429.902,776.767L429.902,643.752L395.363,624.189ZM321.902,692.523C311.377,697.658,299.806,701.883,287.000,705.000C280.482,706.587,274.145,708.371,267.986,710.339C296.734,735.598,321.902,747.767,321.902,747.767L321.902,692.523ZM457.902,776.767L456.902,522.767L678.902,396.767C678.902,396.767,718.306,446.101,705.902,540.767C692.973,639.437,640.902,686.772,640.902,686.772L640.902,584.767C640.902,584.767,650.223,567.805,652.902,534.767C656.223,493.805,649.902,473.767,649.902,473.767L603.902,500.758L603.902,721.767C603.902,721.767,596.131,730.554,578.902,740.767C560.131,751.894,549.902,753.776,549.902,753.776L549.902,530.767L510.902,553.730L510.902,767.767L457.902,776.767Z" style="fill: rgb(255, 255, 255); fill-opacity: 1;"/></g></g></g></svg>