<svg width="1920" height="299" viewBox="0 0 1920 299" fill="none" xmlns="http://www.w3.org/2000/svg">
<g clip-path="url(#clip0_114_160)">
<path d="M0 0L22.8 39.8978C45.7333 79.4219 92 159.778 137.333 174.448C182.8 189.678 228 139.222 274.667 99.6978C320 59.8 365.333 29.9 412 49.8022C457.2 70.0781 502.667 139.222 548 174.448C594.267 209.3 640 209.3 685.333 204.348C731.467 199.022 777.333 189.678 822.667 179.4C868.533 169.122 914.667 159.778 960 179.4C1005.73 199.022 1052 249.478 1097.33 234.248C1142.8 219.578 1188 139.222 1234.67 109.602C1280 79.4219 1325.33 99.9781 1372 124.552C1417.2 149.5 1462.67 179.4 1508 169.402C1554.27 159.778 1600 109.322 1645.33 104.65C1691.47 99.9781 1737.33 139.222 1782.67 164.45C1828.53 189.678 1874.67 199.022 1897.33 204.348L1920 209.3V299H1897.2C1874.27 299 1828 299 1782.67 299C1737.2 299 1692 299 1645.33 299C1600 299 1554.67 299 1508 299C1462.8 299 1417.33 299 1372 299C1325.73 299 1280 299 1234.67 299C1188.53 299 1142.67 299 1097.33 299C1051.47 299 1005.33 299 960 299C914.267 299 868 299 822.667 299C777.2 299 732 299 685.333 299C640 299 594.667 299 548 299C502.8 299 457.333 299 412 299C365.733 299 320 299 274.667 299C228.533 299 182.667 299 137.333 299C91.4667 299 45.3333 299 22.6667 299H0V0Z" fill="url(#paint0_linear_114_160)"/>
</g>
<defs>
<linearGradient id="paint0_linear_114_160" x1="960" y1="0" x2="960" y2="299" gradientUnits="userSpaceOnUse">
<stop stop-color="#7D6DCA"/>
<stop offset="1" stop-color="#2B40B2"/>
</linearGradient>
<clipPath id="clip0_114_160">
<rect width="1920" height="299" fill="white"/>
</clipPath>
</defs>
</svg>
