<svg width="44" height="36" viewBox="0 0 44 36" fill="none" xmlns="http://www.w3.org/2000/svg">
<path d="M42 1.62962C42 1.62962 38.3311 3.79709 36.2909 4.41144C35.1958 3.15236 33.7405 2.25996 32.1218 1.85493C30.5031 1.44991 28.7991 1.55178 27.2402 2.1468C25.6813 2.74182 24.3425 3.80125 23.4055 5.18182C22.4682 6.5624 21.9776 8.19749 22 9.86598V11.6842C18.8047 11.767 15.6387 11.0584 12.7837 9.62133C9.92862 8.18429 7.47331 6.06349 5.63636 3.4478C5.63636 3.4478 -1.63636 19.8115 14.7273 27.0842C10.9828 29.6259 6.52211 30.9004 2 30.7206C18.3636 39.8115 38.3636 30.7206 38.3636 9.81144C38.362 9.30498 38.3133 8.79978 38.2182 8.30235C40.0738 6.47233 42 1.62962 42 1.62962Z" stroke="white" stroke-width="3" stroke-linecap="round" stroke-linejoin="round"/>
</svg>
